<?xml version="1.0" encoding="UTF-8"?>
<svg version="1.1" xmlns="http://www.w3.org/2000/svg" width="1024" height="1024">
<path d="M0 0 C337.92 0 675.84 0 1024 0 C1024 337.92 1024 675.84 1024 1024 C686.08 1024 348.16 1024 0 1024 C0 686.08 0 348.16 0 0 Z " fill="#0D0D0D" transform="translate(0,0)"/>
<path d="M0 0 C13.40263086 8.71926388 22.38642228 21.64751986 26.625 36.98828125 C32.60839552 65.70026945 25.07060533 99.100684 15.9375 126.5 C16.74214691 126.49333817 17.54679382 126.48667633 18.37582397 126.47981262 C25.99565351 126.41945401 33.61536549 126.3739007 41.23537254 126.34456348 C45.15197405 126.32897339 49.06837637 126.30785853 52.98486328 126.27368164 C56.7715002 126.24084839 60.55794672 126.22309706 64.34471512 126.21536827 C65.78226336 126.2098674 67.21980236 126.19912671 68.65726852 126.18280983 C83.10864551 126.0254419 94.97422961 128.65900989 105.75 138.875 C114.7628827 148.58606376 119.37180508 161.57070898 119.1484375 174.81640625 C118.51877388 182.82712675 117.26047519 190.0855511 112.4375 196.625 C110.7602794 198.92301454 110.7602794 198.92301454 109.9375 201.5 C110.90216853 205.85823461 112.93017134 209.53915846 114.9375 213.5 C118.48263522 224.01435226 117.65739787 235.15317295 113.9375 245.5 C111.76611724 249.81310182 109.35982645 253.87986656 106.16796875 257.515625 C104.68858696 259.4071234 104.68858696 259.4071234 105.30078125 261.515625 C105.61402344 262.25296875 105.92726563 262.9903125 106.25 263.75 C110.11556242 275.16181252 108.65810401 287.58103767 103.9375 298.5 C101.22797416 303.70180684 98.18877162 308.62309256 94.9375 313.5 C94.71345663 315.68087785 94.57936369 317.87158124 94.5 320.0625 C93.70296103 332.98781523 89.71490664 343.27866388 80.1875 352.3125 C61.03356893 368.47362934 33.90804609 365.67186228 10.36499023 365.63037109 C6.77388232 365.62503548 3.18290089 365.63033369 -0.40820312 365.63671875 C-38.77358891 365.65106514 -38.77358891 365.65106514 -56.125 362.8125 C-57.2080542 362.64024902 -58.2911084 362.46799805 -59.40698242 362.29052734 C-70.77387631 360.37727952 -81.64434177 357.159636 -92.6171875 353.69287109 C-108.32762207 348.76545326 -124.06077736 345.81028635 -140.5546875 345.21484375 C-141.73393799 345.17025024 -141.73393799 345.17025024 -142.93701172 345.12475586 C-145.74281386 345.62010595 -146.70361935 346.78276726 -148.5 348.9375 C-148.93183594 349.57558594 -149.36367188 350.21367188 -149.80859375 350.87109375 C-151.0625 352.5 -151.0625 352.5 -154.0625 353.5 C-156.93118254 353.61203432 -159.77619046 353.66769668 -162.64550781 353.67700195 C-163.52227676 353.68357315 -164.39904572 353.69014435 -165.30238342 353.69691467 C-168.20679815 353.71664077 -171.11116118 353.72830903 -174.015625 353.73828125 C-175.0080999 353.74235678 -176.0005748 353.7464323 -177.02312469 353.75063133 C-182.27664481 353.77148959 -187.53013884 353.78579212 -192.78369141 353.79516602 C-198.20539186 353.80622719 -203.62668154 353.84062459 -209.04823685 353.88033772 C-213.22103632 353.90650423 -217.39373794 353.91485792 -221.56661224 353.91844749 C-223.56485517 353.9233137 -225.56309372 353.93492862 -227.56125641 353.95348549 C-230.36180511 353.97787646 -233.16129129 353.9769119 -235.96191406 353.9699707 C-237.19346977 353.98918579 -237.19346977 353.98918579 -238.4499054 354.00878906 C-244.11701403 353.95774803 -247.40192039 352.7659942 -252.0625 349.5 C-256.67692943 343.67124704 -257.21155675 339.23922645 -257.20967102 332.00480652 C-257.21334771 331.24678704 -257.2170244 330.48876756 -257.2208125 329.7077778 C-257.2318314 327.16609955 -257.2356901 324.62446221 -257.23950195 322.08276367 C-257.24576786 320.26104096 -257.25241477 318.43931953 -257.25941467 316.61759949 C-257.28043883 310.63439827 -257.29081415 304.65119684 -257.30078125 298.66796875 C-257.30482914 296.60771483 -257.30894607 294.54746105 -257.31313133 292.48720741 C-257.3321778 282.80961961 -257.34641111 273.13203942 -257.3547433 263.45443648 C-257.36452013 252.2835871 -257.39085362 241.11293564 -257.43124419 229.94215602 C-257.4613962 221.30679156 -257.47621123 212.67148387 -257.47952431 204.03606778 C-257.48187545 198.87871951 -257.49084456 193.72158281 -257.51598549 188.564291 C-257.53925573 183.712507 -257.54350363 178.86107406 -257.53322411 174.00924873 C-257.53272841 172.23029793 -257.53905869 170.4513299 -257.55278015 168.67243195 C-257.57049103 166.23991618 -257.56339774 163.80866151 -257.55024719 161.37614441 C-257.56121644 160.6755464 -257.57218568 159.97494838 -257.58348733 159.25312012 C-257.51336179 153.86445821 -255.99253936 150.86335647 -253.0625 146.5 C-248.32763277 142.19557525 -243.58220079 142.34280323 -237.46362305 142.32299805 C-236.5852478 142.31642685 -235.70687256 142.30985565 -234.80187988 142.30308533 C-231.89265864 142.28336126 -228.98348899 142.27169219 -226.07421875 142.26171875 C-224.58363418 142.25560546 -224.58363418 142.25560546 -223.06293678 142.24936867 C-217.80408562 142.22851253 -212.54526052 142.21420837 -207.28637695 142.20483398 C-201.85561054 142.19376571 -196.42525343 142.15935954 -190.99463177 142.11966228 C-186.8175836 142.09351622 -182.64063331 142.08514397 -178.46351051 142.08155251 C-176.46165004 142.07668199 -174.45979407 142.0650548 -172.45801353 142.04651451 C-169.65486575 142.0221642 -166.85278174 142.02308051 -164.04956055 142.0300293 C-162.81261192 142.01081421 -162.81261192 142.01081421 -161.55067444 141.99121094 C-156.25557864 142.0389866 -153.26134432 142.99055626 -149.0625 146.5 C-145.0625 151.65789474 -145.0625 151.65789474 -145.0625 155.5 C-134.16032994 151.28089919 -124.04424857 147.18195081 -115.0625 139.5 C-114.23878906 138.80132812 -113.41507813 138.10265625 -112.56640625 137.3828125 C-110.01012682 135.14158155 -107.53051603 132.83791906 -105.0625 130.5 C-104.20011719 129.70207031 -103.33773437 128.90414062 -102.44921875 128.08203125 C-90.69493893 116.83806748 -81.10240056 103.60418452 -73.0625 89.5 C-72.39734375 88.39011719 -71.7321875 87.28023438 -71.046875 86.13671875 C-60.86447044 68.64791149 -55.63860729 47.66515033 -52.97875977 27.7043457 C-51.47873897 16.50232705 -49.65120782 7.36071129 -40.359375 -0.02734375 C-27.75519879 -8.10859278 -12.89021566 -7.06816897 0 0 Z " fill="#FDFDFD" transform="translate(430.0625,306.5)"/>
<path d="M0 0 C7.7173495 1.73640364 13.7980759 7.64047369 18.03515625 14.16015625 C21.21029883 20.21478036 21.20443608 26.72085604 21.3125 33.4375 C21.33030518 34.10950439 21.34811035 34.78150879 21.36645508 35.47387695 C21.34529035 49.79262917 17.43034493 64.25784821 14.09326172 78.09887695 C13.49318027 80.59082014 12.90420568 83.08521231 12.31640625 85.58007812 C11.93033057 87.20067417 11.54363463 88.8211226 11.15625 90.44140625 C10.98428101 91.16969131 10.81231201 91.89797638 10.63513184 92.64833069 C9.5333335 97.19077256 8.18284353 101.58244751 6.62278748 105.98919678 C4.75016747 112.03535295 5.0679433 118.78636535 7.5 124.5625 C12.29301631 129.2356909 17.5286911 131.43672264 24.20710754 131.52781677 C24.94660141 131.51807327 25.68609528 131.50832977 26.44799805 131.49829102 C27.65202271 131.50656921 27.65202271 131.50656921 28.88037109 131.51501465 C30.60831453 131.52428062 32.33632628 131.52448487 34.06427574 131.51642036 C36.80123649 131.50372292 39.53719884 131.51513966 42.27412415 131.53245544 C47.09398358 131.55907614 51.91359551 131.56475383 56.73352051 131.56335449 C64.45782693 131.5611201 72.18182858 131.57525231 79.9060154 131.61894035 C82.59885905 131.62876808 85.29122095 131.62006975 87.98405457 131.61024475 C89.63610143 131.61638877 91.28814568 131.62330044 92.94018555 131.63110352 C93.68575211 131.62338425 94.43131866 131.61566498 95.19947815 131.60771179 C99.65652052 131.65112979 102.44481664 132.2828207 106 135 C110.42874121 139.92082357 111.4248121 143.76571101 111.33984375 150.2421875 C110.38862302 157.96128906 106.01551925 163.28900816 100.51953125 168.42578125 C97.7587282 171.28594483 96.98890385 174.09516114 97.01171875 178.01171875 C97.36178431 182.22028474 98.21931875 184.85662119 101 188 C101 188.66 101 189.32 101 190 C101.5775 190.226875 102.155 190.45375 102.75 190.6875 C106.14222063 192.66629537 108.25493471 195.50986942 110 199 C110.59322717 204.70410743 110.27501633 209.14029835 107 214 C103.34157082 218.11912027 99.30894596 221.57818998 95 225 C93.10129709 228.79740582 93.38415821 232.87386 94 237 C95.67119989 240.88779136 97.75580852 244.41924018 100 248 C102.32682407 252.65364813 101.26499241 258.00220731 99.6875 262.75 C97.16295138 268.69282431 92.82819847 272.90103778 88.36328125 277.43359375 C85.43858832 280.60966524 84.85918387 282.82454072 84.875 287 C84.87242187 287.680625 84.86984375 288.36125 84.8671875 289.0625 C84.93368874 291.21874781 84.93368874 291.21874781 86 294 C86.50171564 300.12093081 86.08833623 303.1167095 82 308 C73.55277157 315.65238123 56.12417982 313.29504924 45.328125 313.265625 C43.55279487 313.26697719 41.77746511 313.26892229 40.00213623 313.27142334 C36.30086707 313.27435167 32.59969523 313.27015355 28.8984375 313.26074219 C24.20801608 313.24938278 19.51782456 313.25589962 14.82741165 313.26788712 C11.16544946 313.27519696 7.5035396 313.27277595 3.84157562 313.26763153 C2.11481447 313.26631834 0.3880482 313.26785864 -1.33870697 313.27259064 C-16.03502923 313.30402696 -31.09829726 312.91275079 -45.3125 308.8125 C-46.08625977 308.60181885 -46.86001953 308.3911377 -47.65722656 308.17407227 C-52.72304681 306.75862249 -57.67737224 305.0945188 -62.63842773 303.35131836 C-82.64559318 296.35058729 -102.84965955 294.53804085 -124 292 C-124 248.77 -124 205.54 -124 161 C-117.4 159.02 -110.8 157.04 -104 155 C-79.48754093 144.42599805 -58.12113755 123.93862937 -42.30273438 102.73388672 C-41.07369742 101.09808829 -39.81124272 99.48755245 -38.546875 97.87890625 C-26.35778116 82.04438411 -17.18651427 63.27199511 -12 44 C-11.66863037 42.78836182 -11.66863037 42.78836182 -11.33056641 41.55224609 C-8.97953832 32.84591218 -6.96062326 24.13839196 -5.4375 15.25 C-4.41932853 9.46865857 -3.03148161 5.01762473 0 0 Z " fill="#0D0D0D" transform="translate(409,330)"/>
<path d="M0 0 C0.72316406 -0.00128906 1.44632813 -0.00257813 2.19140625 -0.00390625 C6.20139513 1.00730834 8.80303027 3.5039563 10.90039062 7.00317383 C11.29419922 7.91607178 11.68800781 8.82896973 12.09375 9.76953125 C12.55217285 10.81536377 13.0105957 11.86119629 13.48291016 12.9387207 C13.9629248 14.07269287 14.44293945 15.20666504 14.9375 16.375 C15.45231934 17.5611792 15.96713867 18.7473584 16.49755859 19.96948242 C21.00060432 30.36524772 25.34132987 40.83229996 29.69213867 51.29248047 C34.36085299 62.49623014 39.31834055 73.55765749 44.4375 84.5625 C49.9260249 85.08015106 55.41501472 85.59251368 60.90447998 86.10009766 C62.88228954 86.28313109 64.86003249 86.46688577 66.83770752 86.65136719 C77.97694912 87.68725873 89.1120665 88.64686261 100.27734375 89.35546875 C101.68254524 89.44705009 101.68254524 89.44705009 103.11613464 89.54048157 C107.59663268 89.83144785 112.076934 90.10419552 116.56030273 90.34692383 C118.18347834 90.44928447 119.80660942 90.55235438 121.4296875 90.65625 C122.15594833 90.68853195 122.88220917 90.7208139 123.63047791 90.7540741 C128.60233244 91.09771097 131.52532929 92.53570375 135.4375 95.5625 C136.035625 95.975 136.63375 96.3875 137.25 96.8125 C139.32350959 99.86819834 139.86251869 102.96976388 139.4375 106.5625 C136.70766063 111.56365104 131.72165377 115.17388352 127.44140625 118.8125 C125.51783286 120.49234577 123.72436504 122.23900219 121.9375 124.0625 C118.89917583 127.15606643 115.6898468 129.98355507 112.40625 132.8125 C110.50726929 134.50048286 108.71744012 136.25019734 106.9375 138.0625 C104.03878661 141.00660712 101.00418623 143.71490014 97.875 146.41015625 C94.0530682 149.78497103 90.34189797 153.27854675 86.62475586 156.76806641 C86.05635986 157.29964355 85.48796387 157.8312207 84.90234375 158.37890625 C84.34144043 158.91273926 83.78053711 159.44657227 83.20263672 159.99658203 C81.4375 161.5625 81.4375 161.5625 79.41064453 162.98388672 C75.73340387 165.52787256 75.73340387 165.52787256 74.11914062 169.48925781 C74.34357411 171.93247189 74.83902301 174.18257304 75.4375 176.5625 C75.73696533 177.95976318 75.73696533 177.95976318 76.04248047 179.38525391 C76.77399793 182.72728465 77.57063234 186.04976717 78.375 189.375 C79.00111238 192.01667036 79.62606992 194.6585963 80.25 197.30078125 C80.4184996 198.0121524 80.58699921 198.72352356 80.76060486 199.45645142 C82.93885548 208.65905927 85.07568983 217.87113623 87.19070435 227.08847046 C87.64540787 229.06466556 88.10264687 231.04027905 88.56246948 233.01528931 C89.21315266 235.81090109 89.85553298 238.60830403 90.49609375 241.40625 C90.6926355 242.24258469 90.88917725 243.07891937 91.0916748 243.94059753 C93.5098338 254.60932058 93.5098338 254.60932058 90.6875 259.75 C86.96741453 264.40010684 86.96741453 264.40010684 84.4375 265.5625 C77.157844 265.84955567 72.2595511 263.13436853 66.375 259.1875 C64.53484644 258.00034232 62.69222801 256.81699986 60.84765625 255.63671875 C59.33196045 254.6629126 59.33196045 254.6629126 57.78564453 253.66943359 C51.37981724 249.63834934 44.83594874 245.83665127 38.3125 242 C28.3667007 236.14686201 18.47764522 230.24969558 8.91748047 223.77514648 C5.47309349 221.26814729 5.47309349 221.26814729 1.43383789 220.83691406 C-1.86397362 222.03553163 -4.84265358 223.81914597 -7.875 225.5625 C-8.59083252 225.96984375 -9.30666504 226.3771875 -10.04418945 226.796875 C-15.07106784 229.67096098 -20.04814142 232.62344052 -25.0012207 235.62304688 C-33.24953545 240.60712599 -41.58185814 245.45054293 -49.90722656 250.30444336 C-55.15823038 253.3692733 -60.40523024 256.43236872 -65.55859375 259.66015625 C-66.58919922 260.30210937 -66.58919922 260.30210937 -67.640625 260.95703125 C-69.33912477 262.02394602 -71.0275466 263.10686167 -72.71484375 264.19140625 C-75.97394708 265.76060415 -77.98814953 265.97283346 -81.5625 265.5625 C-85.55744292 263.41137689 -87.86950401 261.76527572 -89.5625 257.5625 C-90.1782241 249.69885173 -88.47557616 242.60044164 -86.67578125 234.97265625 C-86.37313239 233.66117702 -86.07124266 232.3495224 -85.77006531 231.03770447 C-85.13797152 228.29379806 -84.49944724 225.55150113 -83.85571289 222.81030273 C-83.04402093 219.35333138 -82.24423663 215.89375371 -81.44880867 212.43300819 C-80.67517962 209.07008801 -79.8955562 205.7085749 -79.11328125 202.34765625 C-78.96138462 201.69494373 -78.80948799 201.04223122 -78.65298843 200.36973953 C-76.63726655 191.74380559 -74.50658611 183.16859482 -71.79231262 174.73219299 C-70.9434928 171.94305007 -70.3983464 170.09142692 -71.27685547 167.26074219 C-73.32320248 164.55766778 -75.88694023 162.50149002 -78.5 160.375 C-79.37398437 159.64990234 -79.37398437 159.64990234 -80.265625 158.91015625 C-82.02521872 157.453412 -83.79248402 156.00655364 -85.5625 154.5625 C-86.50222656 153.79292969 -87.44195313 153.02335938 -88.41015625 152.23046875 C-90.1914386 150.77448686 -91.97401048 149.32008132 -93.7578125 147.8671875 C-98.51885419 143.9549109 -103.20936241 139.95973435 -107.90527344 135.96972656 C-110.0826664 134.12080301 -112.26325102 132.27567365 -114.44458008 130.43139648 C-115.51817385 129.52304576 -116.59093657 128.61371184 -117.6628418 127.70336914 C-120.49125948 125.30301771 -123.33371891 122.9224161 -126.19921875 120.56640625 C-126.79347656 120.07398438 -127.38773438 119.5815625 -128 119.07421875 C-129.13729359 118.13239749 -130.27900517 117.19587692 -131.42578125 116.265625 C-135.52899656 112.85315197 -137.22143395 110.53310387 -138.125 105.3125 C-137.44497647 100.77900978 -135.9030346 98.74446162 -133.0703125 95.26171875 C-126.051426 90.50593117 -115.25666059 90.90337516 -107.05859375 90.125 C-105.10564677 89.93295658 -103.15269993 89.74091161 -101.19976139 89.54878235 C-98.48448062 89.28291828 -95.76876426 89.02166008 -93.05303955 88.76037598 C-87.03341629 88.18019289 -81.01478422 87.58976517 -74.99609375 87 C-73.72623627 86.87592773 -72.45637878 86.75185547 -71.14804077 86.62402344 C-61.93784156 85.71705399 -52.74546569 84.71365064 -43.5625 83.5625 C-43.06024902 82.37213135 -42.55799805 81.1817627 -42.04052734 79.95532227 C-41.70482224 79.15977432 -41.36911713 78.36422638 -41.02323914 77.54457092 C-40.26028917 75.73645765 -39.49744471 73.92829987 -38.73469543 72.12010193 C-36.60298037 67.06755411 -34.46855962 62.0161747 -32.3293457 56.96679688 C-26.79546546 43.90243542 -26.79546546 43.90243542 -21.37145996 30.79222107 C-20.12750618 27.74911578 -18.87235241 24.71069312 -17.61627197 21.6725769 C-17.04314211 20.2765395 -16.47594043 18.8780522 -15.91497803 17.4770813 C-8.80567133 -0.26779322 -8.80567133 -0.26779322 0 0 Z " fill="#FEFEFE" transform="translate(708.5625,342.4375)"/>
<path d="M0 0 C18.15 0 36.3 0 55 0 C55 50.82 55 101.64 55 154 C36.85 154 18.7 154 0 154 C0 103.18 0 52.36 0 0 Z " fill="#0D0D0D" transform="translate(202,478)"/>
<path d="M0 0 C1.32 0.33 2.64 0.66 4 1 C3.34 1 2.68 1 2 1 C2 43.24 2 85.48 2 129 C3.65 129.33 5.3 129.66 7 130 C7 130.33 7 130.66 7 131 C4.69 131 2.38 131 0 131 C0 87.77 0 44.54 0 0 Z " fill="#171717" transform="translate(285,491)"/>
<path d="M0 0 C0.33 0 0.66 0 1 0 C0.67 2.31 0.34 4.62 0 7 C0.77007889 6.99555878 1.54015778 6.99111755 2.33357239 6.98654175 C9.58768956 6.94648241 16.84175316 6.9160245 24.09595203 6.89637566 C27.8254906 6.88593444 31.55493783 6.87176917 35.28442383 6.84912109 C38.88298631 6.82740461 42.4814609 6.81543392 46.08008385 6.81024551 C47.45362418 6.8065476 48.82715966 6.79932655 50.20066261 6.78853989 C52.12306662 6.77404171 54.04555891 6.77318322 55.96801758 6.77294922 C57.06277908 6.768508 58.15754059 6.76406677 59.28547668 6.75949097 C62 7 62 7 65 9 C42.89 9 20.78 9 -2 9 C-1.34 6.03 -0.68 3.06 0 0 Z " fill="#040404" transform="translate(448,424)"/>
<path d="M0 0 C2.49729916 3.74594875 2.2965629 5.55155657 2 10 C1.45980238 12.39829117 0.76471055 14.65807395 0 17 C-0.99 17 -1.98 17 -3 17 C-2.01 11.39 -1.02 5.78 0 0 Z " fill="#1D1D1D" transform="translate(403,348)"/>
<path d="M0 0 C-0.99 1.485 -0.99 1.485 -2 3 C-4.95064148 3.2208564 -7.68368231 3.28060989 -10.625 3.1875 C-11.42679687 3.17396484 -12.22859375 3.16042969 -13.0546875 3.14648438 C-15.03674378 3.11109051 -17.01845551 3.05728234 -19 3 C-18.67 2.34 -18.34 1.68 -18 1 C-12.04621634 -0.2943008 -6.06733345 -0.09874503 0 0 Z " fill="#181817" transform="translate(475,640)"/>
<path d="M0 0 C4.33025464 -0.01288766 8.5487846 0.24686339 12.75 1.3671875 C12.75 1.6971875 12.75 2.0271875 12.75 2.3671875 C11.78578125 2.41617188 10.8215625 2.46515625 9.828125 2.515625 C8.56484375 2.59039063 7.3015625 2.66515625 6 2.7421875 C4.12054688 2.84660156 4.12054688 2.84660156 2.203125 2.953125 C-0.85998121 3.32042054 -2.66974266 3.76430036 -5.25 5.3671875 C-4.16128515 2.25657365 -3.39412054 0.55390162 0 0 Z " fill="#070707" transform="translate(287.25,650.6328125)"/>
<path d="M0 0 C0.66 0.33 1.32 0.66 2 1 C-1.42166518 5.70478962 -5.57905197 9.27653164 -10 13 C-10.66 12.34 -11.32 11.68 -12 11 C-8.04 7.37 -4.08 3.74 0 0 Z " fill="#131313" transform="translate(798,495)"/>
<path d="M0 0 C0.89203125 0.20367187 1.7840625 0.40734375 2.703125 0.6171875 C3.37859375 0.78476562 4.0540625 0.95234375 4.75 1.125 C5.08 2.445 5.41 3.765 5.75 5.125 C5.16992188 4.92003906 4.58984375 4.71507812 3.9921875 4.50390625 C-0.4121984 2.98490187 -4.60677777 1.7202849 -9.25 1.125 C-5.82794357 -1.03377391 -3.8855015 -0.92025036 0 0 Z " fill="#1D1D1D" transform="translate(422.25,300.875)"/>
<path d="M0 0 C2 4 2 4 1.8125 6.0625 C1 8 1 8 -2 11 C-1.34 7.37 -0.68 3.74 0 0 Z " fill="#252525" transform="translate(453,400)"/>
<path d="M0 0 C2.64 0.33 5.28 0.66 8 1 C8.33 1.99 8.66 2.98 9 4 C4.545 3.01 4.545 3.01 0 2 C0 1.34 0 0.68 0 0 Z " fill="#171717" transform="translate(336,628)"/>
<path d="M0 0 C0.66 0 1.32 0 2 0 C2 2.97 2 5.94 2 9 C-0.47368421 4.05263158 -0.47368421 4.05263158 -1 1 C-0.67 0.67 -0.34 0.34 0 0 Z " fill="#1A1A1B" transform="translate(517,529)"/>
</svg>
