<?xml version="1.0" encoding="UTF-8"?>
<svg version="1.1" xmlns="http://www.w3.org/2000/svg" width="1024" height="1024">
<path d="M0 0 C0 0.66 0 1.32 0 2 C0.66 2 1.32 2 2 2 C3.35308313 3.31328657 4.68358819 4.64995723 6 6 C7.40292336 7.06010374 8.82016434 8.10148455 10.25 9.125 C21.92628102 18.17890315 29.96463573 32.08929051 32.5625 46.62109375 C35.58050662 72.2432278 32.10641295 98.62561548 24 123 C23.32746773 125.33164947 22.66001488 127.6647764 22 130 C22.77372452 129.99333817 23.54744904 129.98667633 24.34461975 129.97981262 C31.65634388 129.91956083 38.96794667 129.87395446 46.27985477 129.84456348 C50.03848473 129.82894502 53.79690857 129.80777732 57.55541992 129.77368164 C61.18643135 129.74095083 64.81724523 129.72311829 68.44839287 129.71536827 C69.82980901 129.70984925 71.21121502 129.69907209 72.59254646 129.68280983 C85.79080754 129.5336872 85.79080754 129.5336872 92 133 C93.60352038 133.56433973 95.20762503 134.12702407 96.8125 134.6875 C108.29730802 139.33029473 115.32743978 147.74793634 120.28125 158.87890625 C124.86428589 171.17126324 125.06034518 183.52893981 121 196 C120.1388542 197.65509235 119.22629588 199.28511034 118.25 200.875 C116.02546958 204.51758456 115.4819704 206.77542342 116.33984375 210.96484375 C117.33867752 214.04408868 118.69839179 216.92322172 120.078125 219.84765625 C121.3864353 222.90222818 121.76388922 225.6944491 122 229 C122.0515625 229.65226563 122.103125 230.30453125 122.15625 230.9765625 C122.64455158 242.16680704 119.31382641 251.88979922 113 261 C110.40441695 264.89337458 111.17200929 267.64259434 112 272 C112.17402344 272.60972656 112.34804688 273.21945312 112.52734375 273.84765625 C116.17047991 290.43747464 109.42288282 304.3589567 101 318 C100.67 318.33 100.34 318.66 100 319 C99.78644406 320.85645663 99.57894464 322.71385125 99.40527344 324.57446289 C97.94197538 340.03259924 93.47838099 350.95778496 81.47265625 361.1796875 C66.76573751 372.00658187 47.51158359 372.16207339 30.03515625 372.1328125 C28.59280888 372.1334886 27.15046161 372.13446116 25.70811462 372.13571167 C22.69333811 372.13717849 19.67859138 372.13506981 16.66381836 372.13037109 C12.85836964 372.12471994 9.05299146 372.12803362 5.24754524 372.13379669 C-36.94109023 372.18859897 -36.94109023 372.18859897 -52.5 369.25 C-53.46156006 369.0751709 -54.42312012 368.9003418 -55.41381836 368.72021484 C-64.74632456 366.96512122 -73.86863918 364.58670566 -83 362 C-109.05742139 354.53389198 -109.05742139 354.53389198 -136 353 C-136.84949219 353.0309375 -137.69898438 353.061875 -138.57421875 353.09375 C-140.95022112 353.20806782 -140.95022112 353.20806782 -144 354 C-145.24174796 355.9001177 -145.24174796 355.9001177 -146 358 C-150.33515346 360.38786578 -154.69861628 360.28972989 -159.51879883 360.2746582 C-160.36499283 360.27976913 -161.21118683 360.28488007 -162.08302307 360.29014587 C-164.87443153 360.30402106 -167.66559244 360.30308635 -170.45703125 360.30078125 C-172.40370271 360.30466994 -174.35037333 360.30900497 -176.29704285 360.31376648 C-180.37652334 360.3212247 -184.45591728 360.32094074 -188.53540039 360.31567383 C-193.75063322 360.30988646 -198.96551007 360.32679448 -204.18068409 360.3500185 C-208.20169632 360.36478788 -212.22262351 360.36562306 -216.24365807 360.36250877 C-218.16569408 360.36302059 -220.08773504 360.36823211 -222.00974464 360.37832069 C-224.70440041 360.39072694 -227.39837187 360.38386797 -230.09301758 360.37231445 C-230.87926514 360.37995819 -231.6655127 360.38760193 -232.47558594 360.39547729 C-239.20833244 360.33202055 -244.7624515 359.04297906 -249.875 354.375 C-255.47123329 345.48686477 -254.29733261 334.52434086 -254.29052734 324.39819336 C-254.2965186 322.61676249 -254.30332551 320.83533421 -254.31088257 319.0539093 C-254.32848302 314.23586293 -254.33323526 309.41788768 -254.33451414 304.59981227 C-254.33593899 301.58669664 -254.34021477 298.57359892 -254.34550858 295.56048775 C-254.36398487 285.0408832 -254.37218167 274.52132922 -254.37060547 264.00170898 C-254.36940277 254.20692253 -254.39053643 244.41235597 -254.4220928 234.61762518 C-254.44825766 226.1952972 -254.45897277 217.77304108 -254.45769465 209.35067278 C-254.45718534 204.32584005 -254.46285221 199.30120317 -254.48405075 194.27641106 C-254.50343817 189.55257892 -254.50355417 184.8291295 -254.48901749 180.10528374 C-254.48692935 178.37513163 -254.49163061 176.64495551 -254.5037384 174.91484451 C-254.61887618 157.31895977 -254.61887618 157.31895977 -248.59294605 150.37967873 C-243.8892143 146.30569354 -236.210276 146.70621378 -230.30834961 146.7253418 C-229.47961838 146.72023087 -228.65088715 146.71511993 -227.79704285 146.70985413 C-225.08206788 146.69605514 -222.36734942 146.69690704 -219.65234375 146.69921875 C-217.75240486 146.69532751 -215.85246683 146.69099196 -213.95252991 146.68623352 C-209.98093843 146.67879293 -206.0094359 146.67904763 -202.0378418 146.68432617 C-196.95823498 146.69012888 -191.87899184 146.67315995 -186.79944515 146.6499815 C-182.87970364 146.63522681 -178.96004948 146.63437464 -175.04028511 146.63749123 C-173.16766195 146.63697925 -171.29503374 146.6317648 -169.42243767 146.62167931 C-166.80213825 146.60929352 -164.18254463 146.61611839 -161.56225586 146.62768555 C-160.79582764 146.62004181 -160.02939941 146.61239807 -159.23974609 146.60452271 C-153.53466985 146.65997286 -148.7524515 147.73149602 -144.22265625 151.46484375 C-141.6788211 154.69388702 -141 155.7523781 -141 160 C-110.51879054 147.44488903 -88.87211614 126.08224458 -72 98 C-71.62246582 97.38576172 -71.24493164 96.77152344 -70.85595703 96.13867188 C-58.32732711 75.65160408 -53.0712019 53.67208326 -49.4375 30.125 C-47.81303033 19.83183062 -44.8891184 12.10020656 -37 5 C-25.94919383 -2.60024833 -12.66608284 -1.5091503 0 0 Z " fill="#F7F7F7" transform="translate(426,301)"/>
<path d="M0 0 C8.88346042 2.80530329 14.15807547 7.04403612 19.0546875 14.97265625 C28.41254717 35.04178504 18.12656748 65.88767769 12.55957031 85.94775391 C11.51894184 89.7642997 10.60168991 93.61138608 9.67578125 97.45703125 C9 100 9 100 7.9375 102.8515625 C6.84080545 106.53462835 6.69912208 109.72334068 6.6875 113.5625 C6.66236328 115.48255859 6.66236328 115.48255859 6.63671875 117.44140625 C7.04493418 121.4401617 7.31945748 123.01112049 10 126 C18.65998143 132.47181259 28.25795368 131.68237712 38.51953125 131.6015625 C40.30931054 131.60707057 42.09908348 131.61520228 43.88883972 131.62582397 C48.57394963 131.64859511 53.25859072 131.64453008 57.94372559 131.63201904 C65.45868091 131.61363217 72.97336615 131.62368289 80.48825645 131.65787888 C83.10581138 131.66397236 85.72277766 131.65074288 88.34028625 131.63589478 C89.9453649 131.63884253 91.55044246 131.64249707 93.15551758 131.64697266 C93.87924057 131.63768234 94.60296356 131.62839203 95.34861755 131.61882019 C99.75486545 131.65355109 102.48493868 132.32229276 106 135 C110.79624366 140.46238861 111.36356461 143.73016285 111.26953125 150.90234375 C110.58863772 158.72768529 105.91790364 163.56794677 100.70703125 169.1171875 C97.91447795 172.1973035 97.65131542 174.5687298 97.7265625 178.71484375 C98.45412471 184.79518508 101.03828757 189.50575863 105.6875 193.4375 C106.59048828 194.11619141 106.59048828 194.11619141 107.51171875 194.80859375 C109.5181095 196.41475957 109.95049286 197.56336328 110.23828125 200.1015625 C110.42047095 206.29601238 109.92374117 211.04568585 106 216 C104.10206291 217.6057367 102.18350331 219.18727146 100.25 220.75 C96.25647986 224.22812472 96.25647986 224.22812472 94.07421875 228.91796875 C93.75676138 235.92924142 96.08219415 240.47399511 99.65234375 246.33984375 C102.38626218 251.73636099 101.70049419 257.32389514 100.0625 263 C98.11309686 267.64278139 94.61966065 271.03238343 91.15625 274.60546875 C85.88945057 280.45428769 85.6910559 284.32566789 86.0625 291.9375 C86.13307617 293.25911133 86.13307617 293.25911133 86.20507812 294.60742188 C86.3806826 300.32527495 85.86372678 303.4565435 82 308 C76.48161828 313.3280927 68.98123448 313.29605613 61.77026367 313.2746582 C60.42221649 313.2823246 60.42221649 313.2823246 59.04693604 313.29014587 C56.08721165 313.30399782 53.12772164 313.30308678 50.16796875 313.30078125 C48.0911704 313.3046738 46.01437284 313.30900962 43.93757629 313.31376648 C39.58246281 313.32122167 35.22743037 313.32094483 30.87231445 313.31567383 C25.33976661 313.30991476 19.80755744 313.32672697 14.27506542 313.3500185 C9.98086157 313.36489182 5.68673642 313.36560866 1.39251137 313.36250877 C-0.64406689 313.36301634 -2.68065024 313.36814565 -4.71720314 313.37832069 C-21.20935033 313.45054017 -36.77852761 311.97569678 -52.625 307.125 C-53.50559082 306.8667041 -54.38618164 306.6084082 -55.29345703 306.34228516 C-59.24488839 305.17427905 -63.1737969 303.95760731 -67.078125 302.640625 C-82.63944022 297.4190937 -98.83639413 295.07377 -115.1496582 293.5949707 C-118.27135612 293.31180708 -121.0131416 292.99561947 -124 292 C-124 248.77 -124 205.54 -124 161 C-119.19365328 159.19761998 -114.92513968 157.66735256 -110.0625 156.375 C-95.5994506 151.93899527 -83.34449464 143.82300575 -72 134 C-71.47567383 133.54866699 -70.95134766 133.09733398 -70.41113281 132.63232422 C-36.10686376 102.82820818 -15.40808841 64.81515143 -7.31762695 20.37695312 C-5.88316199 12.88153238 -3.85900838 6.60264132 0 0 Z " fill="#0D0D0D" transform="translate(409,330)"/>
<path d="M0 0 C1.34191406 -0.03673828 1.34191406 -0.03673828 2.7109375 -0.07421875 C7.4955751 1.1764573 11.17306807 4.38384952 13.80996704 8.56758118 C14.82608466 10.67250195 15.71488692 12.79360478 16.5703125 14.96875 C16.9028302 15.76748032 17.2353479 16.56621063 17.57794189 17.3891449 C18.65299372 19.98170067 19.70140266 22.5841466 20.75 25.1875 C21.49096191 26.98725048 22.23398308 28.78615446 22.97900391 30.58422852 C24.10849526 33.31174606 25.23630045 36.03985023 26.35665894 38.77113342 C28.68101131 44.43665048 31.06099982 50.07330919 33.515625 55.68359375 C33.81544281 56.36898224 34.11526062 57.05437073 34.42416382 57.76052856 C35.81250546 60.9281907 37.20652162 64.09330871 38.60205078 67.2578125 C41.25766086 73.33277179 43.65119932 79.35656789 45.625 85.6875 C46.29498016 85.67816437 46.96496033 85.66882874 47.65524292 85.65921021 C54.25822108 85.60734626 60.74550631 85.90850007 67.3203125 86.4921875 C68.7951989 86.61709312 68.7951989 86.61709312 70.29988098 86.74452209 C73.45035895 87.01233486 76.60020551 87.28677263 79.75 87.5625 C84.0662823 87.9376402 88.38270215 88.31115963 92.69921875 88.68359375 C93.74584183 88.7743367 94.7924649 88.86507965 95.87080383 88.95857239 C101.58473186 89.44822751 107.2948163 89.88164945 113.01953125 90.22265625 C114.73148682 90.3302124 114.73148682 90.3302124 116.47802734 90.43994141 C118.44480014 90.55794155 120.41266863 90.65960759 122.38134766 90.73974609 C128.62892291 91.13295013 133.6035622 92.85196907 138.625 96.6875 C141.02951521 99.86334524 141.64236393 102.81930346 141.5625 106.8125 C139.40299944 113.43496837 133.73909655 117.30398867 128.625 121.6875 C121.79643067 127.70838908 115.15411256 133.91906338 108.52954102 140.16235352 C104.75729532 143.71162256 100.94893784 147.20137461 97.0625 150.625 C93.44133415 153.84516426 90.2802282 157.26635398 87.15234375 160.9609375 C84.31464825 164.16876719 81.68231875 166.33506042 77.625 167.6875 C76.47901738 171.87458073 76.85295225 174.8137181 77.84082031 179.015625 C78.13152405 180.27463623 78.42222778 181.53364746 78.72174072 182.83081055 C79.04866435 184.19975588 79.37579789 185.56865109 79.703125 186.9375 C80.03456916 188.35631719 80.36510011 189.77534799 80.69476318 191.19458008 C81.56578608 194.93341606 82.44902356 198.66926166 83.3348999 202.40460205 C84.22398122 206.16257567 85.10183757 209.92316578 85.98046875 213.68359375 C87.277967 219.23195042 88.58185621 224.77874005 89.89160156 230.32421875 C90.46955445 232.77860971 91.04735784 235.23303589 91.625 237.6875 C91.91411255 238.90977295 92.2032251 240.1320459 92.50109863 241.39135742 C92.77240601 242.54869385 93.04371338 243.70603027 93.32324219 244.8984375 C93.68443146 246.43250244 93.68443146 246.43250244 94.05291748 247.99755859 C95.1473838 253.1437572 95.40230963 256.29370343 92.8125 260.9375 C88.36893327 266.52369818 88.36893327 266.52369818 85.49609375 267.15625 C75.24612559 267.28787078 67.51910936 261.81280611 59.1875 256.375 C50.62536182 250.86926872 41.89922795 245.66356884 33.10974121 240.53186035 C25.59346576 236.14112329 18.16778741 231.69558188 11.28808594 226.34130859 C8.42135388 224.25764418 6.56795484 223.68441648 3.01171875 223.4921875 C-3.24968793 224.68522624 -8.54342224 228.5625731 -13.875 231.875 C-15.07074909 232.60344461 -16.26746175 233.33030963 -17.46508789 234.05566406 C-19.9147144 235.54001457 -22.36087261 237.02985186 -24.80517578 238.52294922 C-30.09351226 241.74217702 -35.4534264 244.83797036 -40.8125 247.9375 C-46.59944829 251.28487118 -52.36058528 254.65602322 -58.03515625 258.19140625 C-58.9362915 258.74860352 -59.83742676 259.30580078 -60.76586914 259.87988281 C-62.44585 260.92305236 -64.11886968 261.97756087 -65.78295898 263.04589844 C-70.75024227 266.120858 -74.49150172 267.56768599 -80.375 267.6875 C-84.871601 265.48162027 -87.22339682 263.1702609 -89.375 258.6875 C-89.88548666 249.55476425 -87.69715934 240.38989182 -85.57421875 231.5625 C-85.15774834 229.77755127 -85.15774834 229.77755127 -84.73286438 227.95654297 C-84.14862908 225.46138352 -83.55931296 222.96740863 -82.96508789 220.47460938 C-82.06527149 216.69912873 -81.18067933 212.92033794 -80.29882812 209.140625 C-75.15293496 187.21374909 -75.15293496 187.21374909 -72.01489258 177.3515625 C-71.29457757 174.35267756 -71.16880433 171.76124784 -71.375 168.6875 C-72.72071217 166.54320199 -72.72071217 166.54320199 -74.75 164.8125 C-75.48605469 164.13058594 -76.22210937 163.44867188 -76.98046875 162.74609375 C-80.12735506 160.04069557 -83.34077779 157.43953731 -86.609375 154.8828125 C-89.73427956 152.40230917 -92.77613658 149.83742433 -95.8125 147.25 C-99.77913418 143.87362501 -103.76792086 140.5332466 -107.8125 137.25 C-113.90704697 132.28704289 -119.86291721 127.16966282 -125.80810547 122.02978516 C-127.18307637 120.85191198 -128.57646725 119.695612 -129.97265625 118.54296875 C-136.64072337 112.98826311 -136.64072337 112.98826311 -137.375 108.6875 C-137.29280591 103.50927203 -136.79135415 99.83617045 -133.04722595 95.92134094 C-125.58673121 90.41666387 -114.30659462 90.70565781 -105.40234375 89.86328125 C-103.86870601 89.71136735 -102.33514281 89.55869925 -100.801651 89.40531921 C-97.60425278 89.08758291 -94.40631151 88.77640174 -91.20776367 88.47045898 C-87.12971596 88.08022103 -83.0530384 87.67739935 -78.97666073 87.27012348 C-75.81554942 86.95503911 -72.65398662 86.64470408 -69.49225044 86.33595848 C-67.98961255 86.18903556 -66.48707047 86.04112901 -64.98463249 85.89217567 C-57.43333535 85.14753881 -49.97060801 84.49466443 -42.375 84.6875 C-42.24605347 83.73810547 -42.24605347 83.73810547 -42.11450195 82.76953125 C-41.07182306 78.42394579 -39.30427298 74.47373044 -37.54296875 70.375 C-37.15483505 69.46073242 -36.76670135 68.54646484 -36.36680603 67.60449219 C-35.10320891 64.63022125 -33.83313426 61.65877067 -32.5625 58.6875 C-30.82208426 54.60507355 -29.08434692 50.52151236 -27.34765625 46.4375 C-26.91797546 45.4280835 -26.48829468 44.41866699 -26.04559326 43.37866211 C-23.51507658 37.41991831 -21.03483951 31.44444962 -18.62109375 25.4375 C-18.3470018 24.75880859 -18.07290985 24.08011719 -17.79051208 23.38085938 C-16.55143938 20.31139173 -15.32437897 17.23878378 -14.11791992 14.15625 C-8.39641847 -0.03608776 -8.39641847 -0.03608776 0 0 Z " fill="#FAFAFA" transform="translate(707.375,341.3125)"/>
<path d="M0 0 C18.15 0 36.3 0 55 0 C55 50.82 55 101.64 55 154 C36.85 154 18.7 154 0 154 C0 103.18 0 52.36 0 0 Z " fill="#0D0D0D" transform="translate(202,478)"/>
<path d="M0 0 C0.66 0.33 1.32 0.66 2 1 C1.67 2.65 1.34 4.3 1 6 C1.78260696 5.99333817 2.56521393 5.98667633 3.37153625 5.97981262 C10.74337122 5.91972568 18.11508761 5.8740381 25.48710346 5.84456348 C29.2772344 5.8289009 33.06716316 5.80765222 36.85717773 5.77368164 C40.51410601 5.7411087 44.1708397 5.72315145 47.82790184 5.71536827 C49.22378796 5.70982099 50.61966331 5.6989885 52.01546669 5.68280983 C53.9689459 5.66106571 55.92262051 5.65977485 57.8762207 5.65942383 C58.9887471 5.65276199 60.1012735 5.64610016 61.24751282 5.63923645 C64 6 64 6 67 9 C33.835 8.505 33.835 8.505 0 8 C-1.09658936 4.71023192 -0.79953138 3.28696233 0 0 Z " fill="#090909" transform="translate(447,425)"/>
<path d="M0 0 C0.66 0 1.32 0 2 0 C4.12551114 4.25102229 3.43325054 9.67317023 2 14.0625 C1.67 14.701875 1.34 15.34125 1 16 C-0.32 16 -1.64 16 -3 16 C-2.01 10.72 -1.02 5.44 0 0 Z " fill="#2B2B2B" transform="translate(402,349)"/>
<path d="M0 0 C0.70189453 0.00451172 1.40378906 0.00902344 2.12695312 0.01367188 C3.85550538 0.02543073 5.58401365 0.04336546 7.3125 0.0625 C6.3225 1.5475 6.3225 1.5475 5.3125 3.0625 C2.36185852 3.2833564 -0.37118231 3.34310989 -3.3125 3.25 C-4.11429687 3.23646484 -4.91609375 3.22292969 -5.7421875 3.20898438 C-7.72424378 3.17359051 -9.70595551 3.11978234 -11.6875 3.0625 C-9.53214726 -1.24820549 -4.20651089 -0.05105942 0 0 Z " fill="#171716" transform="translate(467.6875,639.9375)"/>
<path d="M0 0 C0.99 0.33 1.98 0.66 3 1 C-0.72346836 5.42094803 -4.29521038 9.57833482 -9 13 C-9.66 12.67 -10.32 12.34 -11 12 C-11 11.34 -11 10.68 -11 10 C-9.35546875 8.37890625 -9.35546875 8.37890625 -7.1875 6.5625 C-4.68897282 4.45536324 -2.2757944 2.34758602 0 0 Z " fill="#212121" transform="translate(797,495)"/>
<path d="M0 0 C1.051875 0.02835938 2.10375 0.05671875 3.1875 0.0859375 C4.7653125 0.10527344 4.7653125 0.10527344 6.375 0.125 C9.1875 0.4609375 9.1875 0.4609375 12.1875 2.4609375 C3.2775 3.4509375 3.2775 3.4509375 -5.8125 4.4609375 C-2.8125 0.4609375 -2.8125 0.4609375 0 0 Z " fill="#0C0C0C" transform="translate(287.8125,650.5390625)"/>
<path d="M0 0 C3.63 0.33 7.26 0.66 11 1 C11 1.66 11 2.32 11 3 C11.66 3 12.32 3 13 3 C13 3.66 13 4.32 13 5 C8.38 4.01 3.76 3.02 -1 2 C-0.67 1.34 -0.34 0.68 0 0 Z " fill="#202020" transform="translate(415,300)"/>
<path d="M0 0 C1.50433594 0.01353516 1.50433594 0.01353516 3.0390625 0.02734375 C3.80992187 0.03894531 4.58078125 0.05054688 5.375 0.0625 C5.375 0.3925 5.375 0.7225 5.375 1.0625 C4.34439453 1.11857422 4.34439453 1.11857422 3.29296875 1.17578125 C2.39191406 1.24152344 1.49085938 1.30726563 0.5625 1.375 C-0.33082031 1.43300781 -1.22414063 1.49101562 -2.14453125 1.55078125 C-4.97024829 2.13372445 -5.75005566 2.96233712 -7.625 5.0625 C-8.285 5.0625 -8.945 5.0625 -9.625 5.0625 C-7.31621143 -0.04981756 -5.45179037 -0.06339291 0 0 Z " fill="#919191" transform="translate(707.625,341.9375)"/>
</svg>
